# xmcd
#
# Track frame offsets:
#	150
#	16062
#	32271
#	49579
#	64604
#	83377
#	102110
#	121512
#	140308
#	161117
#	177617
#	195100
#	213351
#	234010
#
# Disc length: 3403 seconds
#
# Revision: 0
# Processed by: cddbd v1.5.2PL0 Copyright (c) Steve Scherf et al.
# Submitted via: EasyCDDAExtractor 10.0.2.1
#
DISCID=970d490e
DTITLE=Rascal Flatts - Me And My Gang
DYEAR=2006
DGENRE=Country
TTITLE0=Stand
TTITLE1=What Hurts the Most
TTITLE2=Backwards
TTITLE3=I Feel Bad
TTITLE4=My Wish
TTITLE5=Pieces
TTITLE6=Yes I Do
TTITLE7=To Make Her Love Me
TTITLE8=Words I Couldn't Say
TTITLE9=Me and My Gang
TTITLE10=Cool Thing
TTITLE11=Ellsworth
TTITLE12=He Ain't the Leavin' Kind
TTITLE13=Life Is a Highway (Movie Version Long Intro)
EXTD=
EXTT0=
EXTT1=
EXTT2=
EXTT3=
EXTT4=
EXTT5=
EXTT6=
EXTT7=
EXTT8=
EXTT9=
EXTT10=
EXTT11=
EXTT12=
EXTT13=
PLAYORDER=
